<svg width="25" height="25" viewBox="0 0 25 25" fill="none" xmlns="http://www.w3.org/2000/svg">
<path fill-rule="evenodd" clip-rule="evenodd" d="M18.5031 15.2083L16.3864 14.9667C15.8781 14.9083 15.3781 15.0833 15.0197 15.4417L13.4864 16.975C11.1281 15.775 9.19473 13.85 7.99473 11.4833L9.53639 9.94167C9.89473 9.58333 10.0697 9.08333 10.0114 8.575L9.76973 6.475C9.66973 5.63333 8.96139 5 8.11139 5H6.66973C5.72806 5 4.94473 5.78333 5.00306 6.725C5.44473 13.8417 11.1364 19.525 18.2447 19.9667C19.1864 20.025 19.9697 19.2417 19.9697 18.3V16.8583C19.9781 16.0167 19.3447 15.3083 18.5031 15.2083Z" fill="white"/>
</svg>
