<svg width="25" height="25" viewBox="0 0 25 25" fill="none" xmlns="http://www.w3.org/2000/svg">
<path fill-rule="evenodd" clip-rule="evenodd" d="M19.1667 5.83334H5.83335C4.91669 5.83334 4.17502 6.58334 4.17502 7.50001L4.16669 17.5C4.16669 18.4167 4.91669 19.1667 5.83335 19.1667H19.1667C20.0834 19.1667 20.8334 18.4167 20.8334 17.5V7.50001C20.8334 6.58334 20.0834 5.83334 19.1667 5.83334ZM18.8334 9.37501L12.9417 13.0583C12.675 13.225 12.325 13.225 12.0584 13.0583L6.16669 9.37501C5.95835 9.24168 5.83335 9.01668 5.83335 8.77501C5.83335 8.21668 6.44169 7.88334 6.91669 8.17501L12.5 11.6667L18.0834 8.17501C18.5584 7.88334 19.1667 8.21668 19.1667 8.77501C19.1667 9.01668 19.0417 9.24168 18.8334 9.37501Z" fill="white"/>
</svg>
