<svg width="25" height="25" viewBox="0 0 25 25" fill="none" xmlns="http://www.w3.org/2000/svg">
<path fill-rule="evenodd" clip-rule="evenodd" d="M12.5 4.16666C7.90002 4.16666 4.16669 7.89999 4.16669 12.5C4.16669 17.1 7.90002 20.8333 12.5 20.8333C17.1 20.8333 20.8334 17.1 20.8334 12.5C20.8334 7.89999 17.1 4.16666 12.5 4.16666ZM11.6667 19.1083C8.37502 18.7 5.83335 15.9 5.83335 12.5C5.83335 11.9833 5.90002 11.4917 6.00835 11.0083L10 15V15.8333C10 16.75 10.75 17.5 11.6667 17.5V19.1083ZM17.4167 16.9917C17.2 16.3167 16.5834 15.8333 15.8334 15.8333H15V13.3333C15 12.875 14.625 12.5 14.1667 12.5H9.16669V10.8333H10.8334C11.2917 10.8333 11.6667 10.4583 11.6667 9.99999V8.33332H13.3334C14.25 8.33332 15 7.58332 15 6.66666V6.32499C17.4417 7.31666 19.1667 9.70832 19.1667 12.5C19.1667 14.2333 18.5 15.8083 17.4167 16.9917Z" fill="white"/>
</svg>
